<?xml version="1.0" encoding="utf-8"?>
<!-- Generator: Adobe Illustrator 18.0.0, SVG Export Plug-In . SVG Version: 6.00 Build 0)  -->
<!DOCTYPE svg PUBLIC "-//W3C//DTD SVG 1.1//EN" "http://www.w3.org/Graphics/SVG/1.1/DTD/svg11.dtd">
<svg version="1.1" id="Layer_1" xmlns="http://www.w3.org/2000/svg" xmlns:xlink="http://www.w3.org/1999/xlink" x="0px" y="0px"
	 viewBox="0 0 580 500" enable-background="new 0 0 580 500" xml:space="preserve">
<rect x="77.8" y="119.8" opacity="0.5" fill="#FBB03B" width="309.1" height="23.4"/>
<rect x="97.8" y="232.1" opacity="0.5" fill="#C7B299" width="309.1" height="23.4"/>
<rect x="97.8" y="358.1" opacity="0.5" fill="#C7B299" width="309.1" height="23.4"/>
<rect x="77.8" y="405.6" opacity="0.5" fill="#FBB03B" width="309.1" height="23.4"/>
<rect x="57.1" y="451.7" opacity="0.5" fill="#FCEE21" width="309.1" height="23.4"/>
<rect x="57.1" y="66.8" opacity="0.5" fill="#FCEE21" width="309.1" height="23.4"/>
<text transform="matrix(1 0 0 1 65.5 44.5375)" font-family="'Helvetica-Bold'" font-size="16.5241">Fragment</text>
<text transform="matrix(1 0 0 1 175.897 44.5376)" font-family="'Helvetica-Bold'" font-size="16.5241">ViewModel</text>
<text transform="matrix(1 0 0 1 64.3823 82.9135)" font-family="'Helvetica'" font-size="13.7701">onCreate</text>
<text transform="matrix(1 0 0 1 64.3823 466.6924)" font-family="'Helvetica'" font-size="13.7701">onDestroy</text>
<text transform="matrix(1 0 0 1 86.8433 136.188)" font-family="'Helvetica'" font-size="13.7701">onViewCreated</text>
<text transform="matrix(1 0 0 1 86.8433 421.4316)" font-family="'Helvetica'" font-size="13.7701">onDestroyView</text>
<text transform="matrix(1 0 0 1 103.7964 248.4258)" font-family="'Helvetica'" font-size="13.7701">onResume</text>
<text transform="matrix(1 0 0 1 103.7964 375.0429)" font-family="'Helvetica'" font-size="13.7701">onPause</text>
<text transform="matrix(1 0 0 1 175.8975 82.9135)" font-family="'Helvetica'" font-size="13.7701">Create instance</text>
<text transform="matrix(1 0 0 1 175.8975 466.6924)" font-family="'Helvetica'" font-size="13.7701">onDestroy</text>
<text transform="matrix(1 0 0 1 198.3584 136.188)"><tspan x="0" y="0" font-family="'Helvetica'" font-size="13.7701">Subscribe to data layer</tspan><tspan x="0" y="33" font-family="'Helvetica'" font-size="13.7701">- Open a non-completing subscription that gives</tspan><tspan x="0" y="49.6" font-family="'Helvetica'" font-size="13.7701">   the newest values when ever they become available</tspan><tspan x="0" y="66.1" font-family="'Helvetica'" font-size="13.7701">- Trigger a data fetch from network (usually)</tspan></text>
<text transform="matrix(1 0 0 1 198.3584 421.4316)" font-family="'Helvetica'" font-size="13.7701">Unsubscribe from data layer</text>
<text transform="matrix(1 0 0 1 215.3115 248.4258)"><tspan x="0" y="0" font-family="'Helvetica'" font-size="13.7701">Bind values to setters</tspan><tspan x="0" y="33" font-family="'Helvetica'" font-size="13.7701">- Create subscriptions that observe the output</tspan><tspan x="0" y="49.6" font-family="'Helvetica'" font-size="13.7701">   values of the view model</tspan><tspan x="0" y="66.1" font-family="'Helvetica'" font-size="13.7701">- Receive latest values from BehaviorSubject if</tspan><tspan x="0" y="82.6" font-family="'Helvetica'" font-size="13.7701">   something was changed while paused</tspan></text>
<text transform="matrix(1 0 0 1 215.3115 375.0429)" font-family="'Helvetica'" font-size="13.7701">Unbind values</text>
<g>
	<polyline fill="none" stroke="#000000" stroke-width="3" stroke-miterlimit="10" points="98,243.5 85.5,243.5 85.5,370.5 98,370.5 
			"/>
	<polyline fill="none" stroke="#000000" stroke-width="3" stroke-miterlimit="10" points="78,131.5 65.5,131.5 65.5,417.5 78,417.5 
			"/>
	<polyline fill="none" stroke="#000000" stroke-width="3" stroke-miterlimit="10" points="57,78.5 44.5,78.5 44.5,463.5 57,463.5 	
		"/>
</g>
</svg>
